<svg height="400" viewBox="0 0 400 400" width="400" xmlns="http://www.w3.org/2000/svg" xmlns:xlink="http://www.w3.org/1999/xlink"><title/><defs><path d="M157.234 68v6.68c-9.278 1.577-16.12 5.033-20.526 10.367-4.407 5.335-6.61 11.017-6.61 17.047 0 6.402 1.067 14.334 3.2 23.797 2.32 10.112 3.48 18.6 3.48 25.466 0 7.607-2.134 14.936-6.402 21.987-4.268 7.051-9.324 12.409-15.168 16.073-5.845 3.665-13.777 6.935-23.797 9.811 17.256 5.288 29.177 12.455 35.764 21.5 6.587 9.046 9.88 18.021 9.88 26.928 0 5.38-1.113 12.988-3.34 22.822-2.319 9.834-3.478 18.137-3.478 24.91 0 16.142 8.999 25.79 26.997 28.945v6.68c-8.257 0-14.96-.603-20.109-1.81-5.149-1.205-10.877-4.012-17.186-8.419-6.309-4.406-11.249-9.903-14.82-16.49-3.572-6.587-5.358-13.267-5.358-20.04 0-6.215 1.438-15.214 4.314-26.996 2.134-8.814 3.2-16.421 3.2-22.822 0-17.256-9.091-27.461-27.275-30.616v-8.767c9.741-1.484 16.722-5.38 20.944-11.69 4.22-6.308 6.331-13.034 6.331-20.177 0-6.31-1.02-13.592-3.061-21.849-2.876-11.69-4.314-20.41-4.314-26.162 0-11.225 4.894-21.825 14.681-31.798 9.788-9.973 24.005-15.099 42.653-15.377z" id="b"/><filter filterUnits="objectBoundingBox" height="200%" id="a" width="200%" x="-50%" y="-50%"><feOffset dy="4" in="SourceAlpha" result="shadowOffsetOuter1"/><feGaussianBlur in="shadowOffsetOuter1" result="shadowBlurOuter1" stdDeviation="2"/><feColorMatrix in="shadowBlurOuter1" values="0 0 0 0 0 0 0 0 0 0 0 0 0 0 0 0 0 0 0.5 0"/></filter><path d="M243 68v6.68c9.277 1.577 16.12 5.033 20.526 10.367 4.407 5.335 6.61 11.017 6.61 17.047 0 6.402-1.067 14.334-3.2 23.797-2.32 10.112-3.48 18.6-3.48 25.466 0 7.607 2.134 14.936 6.402 21.987 4.268 7.051 9.324 12.409 15.168 16.073 5.845 3.665 13.777 6.935 23.797 9.811-17.256 5.288-29.177 12.455-35.764 21.5-6.587 9.046-9.88 18.021-9.88 26.928 0 5.38 1.112 12.988 3.34 22.822 2.318 9.834 3.478 18.137 3.478 24.91 0 16.142-8.999 25.79-26.997 28.945v6.68c8.257 0 14.96-.603 20.109-1.81 5.149-1.205 10.877-4.012 17.186-8.419 6.309-4.406 11.249-9.903 14.82-16.49 3.572-6.587 5.358-13.267 5.358-20.04 0-6.215-1.438-15.214-4.314-26.996-2.134-8.814-3.2-16.421-3.2-22.822 0-17.256 9.091-27.461 27.275-30.616v-8.767c-9.741-1.484-16.723-5.38-20.944-11.69-4.22-6.308-6.332-13.034-6.332-20.177 0-6.31 1.021-13.592 3.062-21.849 2.876-11.69 4.314-20.41 4.314-26.162 0-11.225-4.894-21.825-14.681-31.798C275.865 73.404 261.648 68.278 243 68z" id="d"/><filter filterUnits="objectBoundingBox" height="200%" id="c" width="200%" x="-50%" y="-50%"><feOffset dy="4" in="SourceAlpha" result="shadowOffsetOuter1"/><feGaussianBlur in="shadowOffsetOuter1" result="shadowBlurOuter1" stdDeviation="2"/><feColorMatrix in="shadowBlurOuter1" values="0 0 0 0 0 0 0 0 0 0 0 0 0 0 0 0 0 0 0.5 0"/></filter></defs><g fill="none" fill-rule="evenodd"><circle cx="200" cy="200" fill="#FE41FF" r="200"/><use fill="#000" filter="url(#a)" xlink:href="#b"/><use fill="#697F9B" xlink:href="#b"/><g><use fill="#000" filter="url(#c)" xlink:href="#d"/><use fill="#697F9B" xlink:href="#d"/></g></g></svg>