<svg height="512" width="512" xmlns="http://www.w3.org/2000/svg"><path d="M275.752 13.39a16.002 16.002 0 0 0-2.218.22H132.002a16.002 16.002 0 0 0-16 16v109h-25a20.002 20.002 0 0 0-17.562 10H51.002a20.002 20.002 0 0 0-18.718 12.28L3.846 208.298a20.002 20.002 0 0 0-2.344 14.812l60 260a20.002 20.002 0 0 0 19.5 15.5h399.97a20.007 20.007 0 0 0 .155 0 20.007 20.007 0 0 0 1.188-.062 20.01 20.01 0 0 0 .937-.062 20.007 20.007 0 0 0 1.657-.28 20.007 20.007 0 0 0 .062 0 20.007 20.007 0 0 0 1.875-.47 20.007 20.007 0 0 0 .063-.03 20.01 20.01 0 0 0 .03 0 20.007 20.007 0 0 0 1.845-.688 20.007 20.007 0 0 0 .843-.375 20.002 20.002 0 0 0 .125-.062 20.002 20.002 0 0 0 .813-.375 20.01 20.01 0 0 0 .031-.031 20.002 20.002 0 0 0 .469-.281 20.007 20.007 0 0 0 .156-.094 20.01 20.01 0 0 0 1.531-1 20.007 20.007 0 0 0 .125-.094 20.01 20.01 0 0 0 .094-.062 20.01 20.01 0 0 0 .5-.438 20.007 20.007 0 0 0 1.031-.844 20.01 20.01 0 0 0 .125-.125 20.01 20.01 0 0 0 .688-.656 20.002 20.002 0 0 0 .406-.437 20.007 20.007 0 0 0 .906-1.063 20.002 20.002 0 0 0 .125-.156 20.007 20.007 0 0 0 .688-.938 20.002 20.002 0 0 0 .531-.812 20.002 20.002 0 0 0 .156-.219 20.007 20.007 0 0 0 .25-.469 20.002 20.002 0 0 0 .438-.75 20.01 20.01 0 0 0 .031-.03 20.002 20.002 0 0 0 .219-.5 20.002 20.002 0 0 0 .687-1.626 20.002 20.002 0 0 0 .094-.219 20.007 20.007 0 0 0 .094-.343 20.002 20.002 0 0 0 .187-.532 20.002 20.002 0 0 0 .156-.468 20.01 20.01 0 0 0 0-.031 20.002 20.002 0 0 0 .125-.563 20.002 20.002 0 0 0 .313-1.375 20.01 20.01 0 0 0 .031-.28 20.007 20.007 0 0 0 .125-1.032 20.01 20.01 0 0 0 .094-.688 20.01 20.01 0 0 0 0-.375 20.01 20.01 0 0 0 .031-.187 20.007 20.007 0 0 0 0-.25l10-320a20.002 20.002 0 0 0-20-20.625h-95v-2.406a16.002 16.002 0 0 0-6.031-15.282L288.596 19.55a16.002 16.002 0 0 0-12.844-6.156zm-127.75 32.22h112v85.437a16.002 16.002 0 0 0 4.594 14 16.002 16.002 0 0 0 .125.125 16.002 16.002 0 0 0 .219.219 16.002 16.002 0 0 0 13.687 4.218h85.375v49H232.315l-24.156-40.281a20.002 20.002 0 0 0-17.157-9.719h-43v-103zm144 22.624l49.375 49.375h-49.375V68.234zm104 110.375h74.344l-5.594 179.125-44.625-145a20.002 20.002 0 0 0 0-.03 20.002 20.002 0 0 0-.687-1.845 20.002 20.002 0 0 0 0-.03 20.002 20.002 0 0 0-.875-1.782 20.002 20.002 0 0 0 0-.031 20.002 20.002 0 0 0-1.031-1.657 20.002 20.002 0 0 0 0-.03 20.002 20.002 0 0 0-1.219-1.563 20.002 20.002 0 0 0 0-.031 20.002 20.002 0 0 0-1.344-1.438 20.002 20.002 0 0 0-.031-.031 20.002 20.002 0 0 0-1.469-1.313 20.002 20.002 0 0 0-.03 0 20.002 20.002 0 0 0-1.595-1.156 20.002 20.002 0 0 0-.03 0 20.002 20.002 0 0 0-1.688-1 20.002 20.002 0 0 0-.032 0 20.002 20.002 0 0 0-1.812-.812 20.002 20.002 0 0 0-1.875-.625 20.002 20.002 0 0 0-3.719-.657 20.002 20.002 0 0 0-.219-.03 20.002 20.002 0 0 0-.03 0 20.002 20.002 0 0 0-1.438-.063h-5v-20zm-333.687 10H179.69l24.156 40.282a20.002 20.002 0 0 0 17.156 9.718h165.22l9.78 31.782 13.375 43.53L453.91 458.61H96.94L42.315 221.953l20-33.344z" style="text-indent:0;text-align:start;line-height:normal;text-transform:none;block-progression:tb;marker:none;-inkscape-font-specification:Sans" font-weight="400" color="#000" fill="#1ab394" stroke-width="40" overflow="visible" font-family="Sans"/></svg>