<svg id="Layer_1" xmlns="http://www.w3.org/2000/svg" viewBox="-36 37 128 128"><style>.st0{fill:#ffc107}</style><g id="XMLID_1_"><path id="XMLID_17_" class="st0" d="M76 133c8.8 0 16 7.2 16 16s-7.2 16-16 16c-8.2 0-14.9-6.1-15.9-14H28.3c-1.1 0-2-.9-2-2v-43.5H-3.5c-1 7.9-7.7 14-15.9 14-8.8 0-16-7.2-16-16s7.2-16 16-16c8.2 0 14.9 6.1 15.9 14h29.8V53c0-1.1.9-2 2-2h31.8c1-7.9 7.7-14 15.9-14 8.8 0 16 7.2 16 16s-7.2 16-16 16c-8.2 0-14.9-6.1-15.9-14H30.3v46.5H60.1c1-7.9 7.7-14 15.9-14 8.8 0 16 7.2 16 16s-7.2 16-16 16c-8.2 0-14.9-6.1-15.9-14H30.3V147h29.8c1-7.9 7.8-14 15.9-14zm0 4c-6.6 0-12 5.4-12 12s5.4 12 12 12 12-5.4 12-12-5.4-12-12-12zm0-96c-6.6 0-12 5.4-12 12s5.4 12 12 12 12-5.4 12-12-5.4-12-12-12zm0 50.5c-6.6 0-12 5.4-12 12s5.4 12 12 12 12-5.4 12-12-5.4-12-12-12zm-95.3 0c-6.6 0-12 5.4-12 12s5.4 12 12 12 12-5.4 12-12-5.4-12-12-12z"/><path id="XMLID_12_" class="st0" d="M76 137c6.6 0 12 5.4 12 12s-5.4 12-12 12-12-5.4-12-12 5.4-12 12-12zm0-96c6.6 0 12 5.4 12 12s-5.4 12-12 12-12-5.4-12-12 5.4-12 12-12zm0 50.5c6.6 0 12 5.4 12 12s-5.4 12-12 12-12-5.4-12-12 5.4-12 12-12zm-95.3 0c6.6 0 12 5.4 12 12s-5.4 12-12 12-12-5.4-12-12 5.4-12 12-12z"/></g></svg>