<svg id="Laag_1" xmlns="http://www.w3.org/2000/svg" viewBox="-84 85 32 32"><style>.st0{fill:#00abff}</style><title/><g id="Page-1"><g id="icon-148-tag-add"><path id="tag-add" class="st0" d="M-75 106v-3h1v3h3v1h-3v3h-1v-3h-3v-1h3zm-3-5l-2-2v-8c0-1.1.9-2 2-2h8l13.4 13.4c.8.8.8 2.1 0 2.8l-7.2 7.2c-.8.8-2 .8-2.8 0L-69 110c.6-1 1-2.2 1-3.5 0-3.6-2.9-6.5-6.5-6.5-1.3 0-2.5.4-3.5 1zm3.5-5c.8 0 1.5-.7 1.5-1.5s-.7-1.5-1.5-1.5-1.5.7-1.5 1.5.7 1.5 1.5 1.5zm0 16c3 0 5.5-2.5 5.5-5.5s-2.5-5.5-5.5-5.5-5.5 2.5-5.5 5.5 2.5 5.5 5.5 5.5z"/></g></g></svg>